<?xml version="1.0" standalone="no"?>
<!DOCTYPE svg PUBLIC "-//W3C//DTD SVG 20010904//EN"
 "http://www.w3.org/TR/2001/REC-SVG-20010904/DTD/svg10.dtd">
<svg version="1.0" xmlns="http://www.w3.org/2000/svg"
 width="1280.000000pt" height="1090.000000pt" viewBox="0 0 1280.000000 1090.000000"
 preserveAspectRatio="xMidYMid meet">
<metadata>
Created by potrace 1.15, written by Peter Selinger 2001-2017
</metadata>
<g transform="translate(0.000000,1090.000000) scale(0.100000,-0.100000)"
fill="blue" stroke="none">
<path d="M5115 10893 c-504 -40 -885 -143 -1294 -347 -417 -208 -797 -509
-1086 -861 -48 -58 -90 -105 -93 -105 -4 0 -56 7 -117 15 -216 29 -535 16
-755 -30 -476 -99 -928 -370 -1242 -744 -268 -321 -435 -689 -504 -1116 -25
-154 -25 -496 0 -650 45 -276 125 -516 248 -740 360 -654 1004 -1081 1743
-1156 239 -24 562 1 787 62 l77 21 113 -105 c192 -178 294 -259 493 -390 964
-633 2184 -721 3247 -233 l76 35 69 -33 c487 -234 1109 -349 1653 -307 821 64
1555 398 2131 971 74 74 175 185 224 245 49 61 92 114 95 118 4 4 62 12 128
17 539 41 1035 319 1348 757 513 716 444 1690 -166 2327 -260 271 -597 456
-962 528 l-109 22 -36 60 c-145 242 -314 457 -518 661 -539 539 -1196 860
-1970 961 -164 22 -590 25 -750 6 -391 -47 -794 -160 -1076 -302 l-58 -30 -78
36 c-371 170 -751 269 -1166 303 -118 10 -355 12 -452 4z"/>
<path d="M3359 4573 c-166 -232 -310 -405 -512 -618 -248 -262 -410 -408 -782
-709 -260 -211 -383 -328 -424 -405 -49 -93 -71 -190 -71 -316 0 -139 24 -235
87 -357 53 -104 143 -201 237 -257 203 -121 498 -105 744 41 75 44 193 162
221 220 33 70 56 200 91 513 38 340 60 497 101 720 68 375 198 822 334 1153
24 56 41 102 40 102 -1 0 -31 -39 -66 -87z"/>
<path d="M7577 4238 c-8 -23 -166 -229 -262 -343 -218 -259 -418 -450 -777
-742 -125 -102 -251 -210 -279 -241 -93 -102 -125 -202 -116 -367 12 -234 148
-424 348 -486 68 -21 204 -25 279 -9 161 36 322 145 379 257 24 48 45 160 66
353 70 649 165 1068 339 1494 20 49 34 91 32 93 -2 2 -6 -2 -9 -9z"/>
<path d="M5577 3428 c-11 -29 -253 -342 -373 -483 -147 -173 -435 -464 -609
-616 -66 -58 -228 -193 -360 -299 -370 -299 -435 -373 -482 -550 -23 -88 -22
-261 2 -355 80 -315 321 -515 620 -515 220 0 486 121 604 274 77 99 91 161
141 606 61 548 108 808 216 1206 50 185 145 469 210 628 25 60 43 110 41 113
-3 2 -7 -2 -10 -9z"/>
<path d="M8415 2827 c-178 -252 -402 -515 -649 -762 -206 -206 -354 -336 -681
-600 -270 -217 -361 -308 -408 -406 -49 -102 -71 -219 -64 -334 8 -118 28
-190 83 -304 37 -76 60 -109 123 -170 124 -124 262 -181 437 -181 260 0 562
160 648 344 37 80 52 164 96 550 59 512 99 744 190 1101 55 213 154 517 230
704 27 69 49 125 47 127 -1 1 -24 -30 -52 -69z"/>
<path d="M3068 1455 c-165 -226 -357 -421 -664 -671 -83 -68 -172 -146 -197
-174 -120 -133 -110 -360 23 -504 130 -141 371 -139 534 5 81 71 88 96 127
434 24 211 56 395 98 555 32 124 112 364 137 412 28 54 10 36 -58 -57z"/>
</g>
</svg>
