<?xml version="1.0" standalone="no"?>
<!DOCTYPE svg PUBLIC "-//W3C//DTD SVG 20010904//EN"
 "http://www.w3.org/TR/2001/REC-SVG-20010904/DTD/svg10.dtd">
<svg version="1.0" xmlns="http://www.w3.org/2000/svg"
 width="1280.000000pt" height="1274.000000pt" viewBox="0 0 1280.000000 1274.000000"
 preserveAspectRatio="xMidYMid meet">
<metadata>
Created by potrace 1.15, written by Peter Selinger 2001-2017
</metadata>
<g transform="translate(0.000000,1274.000000) scale(0.100000,-0.100000)"
fill="orangered" stroke="none">
<path d="M6657 12598 c-11 -232 -66 -436 -186 -683 -110 -228 -178 -336 -509
-814 -332 -479 -458 -717 -530 -999 -24 -97 -27 -125 -27 -292 0 -200 8 -252
65 -416 38 -110 136 -297 211 -404 l59 -84 0 116 c0 362 97 810 288 1328 74
202 175 449 327 804 276 646 347 839 395 1071 34 161 27 331 -18 420 -19 38
-54 85 -62 85 -4 0 -10 -60 -13 -132z"/>
<path d="M3331 11934 c182 -152 296 -448 344 -899 12 -110 18 -328 25 -820 5
-368 14 -740 20 -825 48 -682 213 -1004 561 -1097 68 -18 271 -24 342 -10 l37
8 -77 58 c-311 231 -470 644 -523 1366 -5 77 -17 352 -25 610 -9 259 -20 529
-26 600 -43 552 -164 851 -397 978 -65 36 -189 67 -265 67 l-59 0 43 -36z"/>
<path d="M9681 11725 c-61 -118 -181 -274 -297 -387 -241 -236 -427 -355
-1185 -756 -559 -295 -808 -480 -1041 -773 -185 -232 -313 -586 -336 -930 -5
-68 -8 -124 -8 -125 1 0 66 -35 146 -78 467 -250 794 -553 965 -893 103 -206
143 -365 152 -598 5 -136 2 -179 -16 -288 -70 -409 -276 -787 -621 -1141 -157
-161 -291 -272 -479 -397 -147 -98 -420 -238 -575 -294 -373 -136 -781 -173
-1125 -100 -613 129 -1093 630 -1332 1392 -13 40 -24 71 -26 69 -6 -6 17 -229
38 -356 143 -894 648 -1557 1411 -1855 924 -360 2070 -130 2786 559 385 370
610 808 698 1353 21 136 29 458 15 623 -47 537 -183 859 -519 1225 -111 120
-244 240 -597 535 -176 147 -351 296 -389 331 l-69 63 7 81 c13 162 78 359
171 511 71 117 128 188 240 300 191 189 398 328 924 622 340 189 409 230 546
323 324 219 503 440 561 694 21 87 26 326 8 357 -7 13 -17 1 -53 -67z"/>
<path d="M1008 9675 c-4 -4 24 -19 63 -32 252 -84 491 -285 701 -588 101 -146
217 -356 413 -750 106 -214 226 -446 265 -515 274 -477 543 -710 890 -770 105
-19 290 -14 415 10 137 27 150 34 99 50 -213 68 -428 213 -639 431 -194 201
-333 395 -650 904 -372 598 -538 818 -750 993 -217 180 -413 258 -670 269 -71
3 -133 2 -137 -2z"/>
<path d="M11985 9458 c-54 -69 -163 -154 -262 -206 -180 -93 -399 -143 -718
-163 -185 -11 -258 -10 -865 17 -408 19 -805 14 -970 -10 -426 -64 -690 -214
-850 -485 -44 -74 -105 -226 -114 -286 -7 -39 -6 -41 43 -73 157 -102 284
-106 427 -14 32 21 128 103 213 183 174 163 240 217 325 261 129 66 217 82
381 68 285 -23 759 -33 1032 -22 847 37 1294 178 1421 450 22 47 27 71 27 137
0 76 -26 196 -43 195 -4 -1 -25 -24 -47 -52z"/>
<path d="M5965 8550 c-119 -14 -256 -38 -380 -67 -134 -31 -158 -42 -92 -43
80 0 235 -20 363 -45 518 -104 853 -369 968 -767 103 -357 15 -772 -244 -1160
-291 -434 -743 -698 -1195 -698 -198 0 -410 54 -594 150 -109 58 -104 47 27
-53 398 -305 755 -447 1122 -447 355 0 649 128 920 400 286 286 468 659 546
1115 25 142 25 464 0 600 -20 116 -81 306 -125 394 -136 269 -363 465 -647
560 -172 57 -465 84 -669 61z"/>
<path d="M5447 7956 c-70 -29 -116 -59 -177 -114 l-45 -41 55 6 c138 13 323
-78 480 -236 95 -96 126 -153 151 -283 37 -189 25 -378 -32 -491 -86 -169
-221 -257 -599 -386 -113 -38 -227 -80 -254 -92 l-50 -22 50 -18 c27 -11 105
-34 174 -51 115 -30 138 -32 285 -33 140 0 169 3 235 23 217 68 367 235 431
482 27 105 37 334 20 462 -48 359 -222 671 -436 781 -50 25 -74 31 -145 34
-73 3 -93 0 -143 -21z"/>
<path d="M5167 7748 c-52 -71 -48 -78 6 -13 21 25 34 45 28 45 -5 0 -21 -15
-34 -32z"/>
<path d="M9658 7380 c-138 -22 -308 -81 -438 -152 -115 -63 -250 -157 -250
-174 0 -8 5 -48 11 -87 27 -185 77 -239 177 -188 230 116 519 173 757 151 218
-21 399 -74 633 -186 170 -81 262 -133 552 -314 451 -283 607 -366 799 -430
140 -47 214 -60 346 -60 121 0 234 25 343 75 68 32 202 112 202 121 0 2 -64 3
-142 3 -168 1 -262 12 -415 51 -289 75 -570 223 -1005 530 -259 183 -518 358
-621 419 -173 104 -385 192 -547 226 -89 19 -321 28 -402 15z"/>
<path d="M125 6827 c-50 -47 -99 -101 -110 -121 -20 -37 -20 -38 -1 -52 25
-18 74 -18 260 2 286 30 505 4 565 -69 380 -460 1274 -988 1936 -1142 225 -52
466 -59 607 -17 174 52 292 167 344 334 10 32 15 61 11 64 -3 4 -41 1 -84 -5
-300 -46 -623 -11 -969 104 -246 82 -379 143 -1094 506 -492 250 -808 372
-1140 438 -80 16 -165 32 -190 35 l-45 7 -90 -84z"/>
<path d="M9381 5689 c-97 -12 -194 -45 -311 -102 l-105 -52 92 -6 c317 -23
585 -244 918 -759 34 -52 144 -232 245 -399 314 -522 412 -669 576 -860 299
-350 607 -501 937 -461 148 18 150 20 49 46 -332 84 -607 334 -897 819 -43 72
-142 254 -220 405 -320 618 -392 746 -509 914 -238 340 -497 492 -775 455z"/>
<path d="M4206 4748 c-2 -7 -9 -42 -15 -78 -13 -82 -76 -209 -136 -278 -125
-141 -324 -233 -640 -297 -239 -48 -513 -67 -1200 -85 -220 -6 -458 -15 -530
-21 -489 -39 -735 -134 -831 -320 -23 -45 -28 -70 -32 -150 -6 -129 3 -144 49
-83 101 135 306 239 563 284 243 43 495 49 1041 25 732 -31 973 -29 1245 11
489 73 779 265 914 606 29 73 32 98 14 98 -41 0 -127 58 -224 150 -58 55 -128
112 -154 125 -57 29 -59 29 -64 13z"/>
<path d="M8205 4578 c13 -60 65 -207 182 -523 295 -793 403 -1189 468 -1730
22 -181 30 -584 16 -775 -11 -140 -42 -387 -57 -445 -5 -20 13 -35 143 -126
81 -57 185 -131 231 -166 45 -34 82 -60 82 -58 0 2 -24 35 -53 74 -139 184
-226 404 -247 622 -10 106 0 462 24 809 8 118 20 298 27 400 20 288 17 804 -4
980 -78 635 -303 926 -745 965 l-74 6 7 -33z"/>
<path d="M5430 3903 c0 -177 -43 -360 -124 -528 -139 -288 -380 -525 -786
-770 -52 -32 -223 -127 -380 -212 -388 -210 -507 -279 -632 -365 -235 -161
-382 -315 -471 -493 -64 -129 -94 -311 -78 -474 6 -57 11 -107 11 -112 0 -5 5
-9 10 -9 6 0 10 6 10 13 0 22 97 214 141 279 157 232 372 425 678 608 75 45
312 169 526 275 579 288 751 388 950 548 174 140 353 353 438 522 86 171 167
470 167 618 0 36 -1 37 -34 37 -105 0 -256 50 -367 121 -25 16 -49 29 -52 29
-4 0 -7 -39 -7 -87z"/>
<path d="M6973 3817 c51 -133 58 -392 16 -637 -70 -412 -236 -810 -700 -1677
-261 -486 -349 -677 -384 -827 -15 -66 -15 -72 5 -140 39 -128 197 -434 264
-513 l24 -28 7 50 c38 286 142 557 420 1095 340 658 462 941 544 1262 53 205
65 304 66 518 0 222 -18 339 -81 529 -35 104 -157 366 -177 378 -6 4 -8 0 -4
-10z"/>
</g>
</svg>
